<svg width="103" height="25" viewBox="0 0 103 25" fill="none" xmlns="http://www.w3.org/2000/svg">
<path d="M101.998 20.8306C101.822 20.7136 101.588 20.7721 101.486 20.9621C100.448 22.8622 98.6798 23.5345 97.1013 23.5345C93.535 23.5345 91.635 19.9975 91.4304 15.8173C91.4158 15.5981 91.4158 15.3788 91.4158 15.1596V15.145H101.647C101.793 15.145 101.91 15.0281 101.91 14.8819C101.983 12.4849 100.901 7.91016 95.6105 7.91016C90.9919 7.91016 87.031 11.3449 87.031 16.1535C87.031 21.0498 91.1381 24.4991 95.3766 24.4991C98.0367 24.4991 100.887 23.1545 102.188 20.9475L101.998 20.8306ZM94.8066 8.3194C96.8967 8.78711 97.5983 12.368 97.4959 14.7504H91.4158C91.4888 10.9649 92.9212 8.3194 94.8066 8.3194Z" fill="black"/>
<path d="M68.7469 20.9621C67.7092 22.8622 65.9407 23.5345 64.3622 23.5345C60.7959 23.5345 58.8959 19.9975 58.6912 15.8173C58.6766 15.5981 58.6766 15.3788 58.6766 15.1596V15.145H68.9077C69.0539 15.145 69.1708 15.0281 69.1708 14.8819C69.2439 12.4849 68.1623 7.91016 62.8714 7.91016C58.2528 7.91016 54.2919 11.3449 54.2919 16.1535C54.2919 21.0498 58.3989 24.4991 62.6375 24.4991C65.2976 24.4991 68.1477 23.1545 69.4485 20.9475L69.2877 20.8306C69.0977 20.7136 68.8492 20.7721 68.7469 20.9621ZM62.0675 8.3194C64.1576 8.78711 64.8591 12.368 64.7568 14.7504H58.6766C58.7643 10.9649 60.1967 8.3194 62.0675 8.3194Z" fill="black"/>
<path d="M36.4751 0.5V19.9829C36.4751 22.4822 38.4921 24.4992 40.9914 24.4992V5.01629C40.9914 2.5316 38.9744 0.5 36.4751 0.5Z" fill="black"/>
<path d="M43.7536 7.64697C43.5197 7.64697 43.3297 7.82236 43.3297 8.05622C43.3005 8.05622 43.3151 8.05622 43.3297 8.05622C46.1068 8.74316 47.6999 12.631 47.3491 17.4542C47.086 21.0935 45.8875 23.7536 43.3297 24.0898C43.3297 24.3236 43.5197 24.5137 43.7682 24.499C44.8059 24.4552 45.829 24.2213 46.7791 23.8121C50.7984 22.0728 53.21 17.2496 51.2223 12.6894C49.8046 9.44472 46.8083 7.74928 43.7536 7.64697Z" fill="black"/>
<path d="M0.812378 0.5V19.9829C0.812378 22.4822 2.82936 24.4992 5.32867 24.4992V5.01629C5.32867 2.5316 3.31169 0.5 0.812378 0.5Z" fill="black"/>
<path d="M8.09088 7.64697C7.85703 7.64697 7.66702 7.82236 7.66702 8.05622C7.63779 8.05622 7.65241 8.05622 7.66702 8.05622C10.444 8.74316 12.0372 12.631 11.6864 17.4542C11.4233 21.0935 10.2248 23.7536 7.66702 24.0898C7.66702 24.3236 7.85703 24.5137 8.1055 24.499C9.14322 24.4552 10.1663 24.2213 11.1164 23.8121C15.1357 22.0728 17.5473 17.2496 15.5596 12.6894C14.1418 9.44472 11.1456 7.74928 8.09088 7.64697Z" fill="black"/>
<path d="M33.0694 20.9621C32.0317 22.8622 30.2632 23.5345 28.6847 23.5345C25.1184 23.5345 23.2184 19.9975 23.0137 15.8173C22.9991 15.5981 22.9991 15.3788 22.9991 15.1596V15.145H33.2302C33.3764 15.145 33.4933 15.0281 33.4933 14.8819C33.5664 12.4849 32.4848 7.91016 27.1939 7.91016C22.5753 7.91016 18.6144 11.3449 18.6144 16.1535C18.6144 21.0498 22.7214 24.4991 26.96 24.4991C29.6201 24.4991 32.4702 23.1545 33.771 20.9475L33.6102 20.8306C33.4056 20.7136 33.1718 20.7721 33.0694 20.9621ZM26.39 8.3194C28.4801 8.78711 29.1816 12.368 29.0793 14.7504H22.9991C23.0722 10.9649 24.5046 8.3194 26.39 8.3194Z" fill="black"/>
<path d="M85.4525 21.0062C84.4148 22.8917 82.6463 23.5494 81.0531 23.5494C77.3115 23.5494 75.3822 19.6324 75.3822 14.8968C75.3822 11.9298 76.1422 9.57666 77.7646 8.69971C77.7646 8.40739 77.4869 8.18815 77.1946 8.26123C73.6429 9.21126 70.9974 12.2367 70.9974 16.1684C70.9974 21.0062 75.0606 24.4994 79.3431 24.4994C82.0032 24.4994 84.8533 23.1548 86.1541 20.9478L86.0371 20.8601C85.8325 20.7285 85.5694 20.787 85.4525 21.0062Z" fill="black"/>
<path d="M79.4162 8.48017C80.7755 9.35712 82.7632 11.3303 84.0202 12.7042L85.2333 9.22558C83.8886 8.52402 81.667 7.91016 79.6939 7.91016H79.577C79.4016 7.91016 79.27 8.05631 79.27 8.21709C79.27 8.33402 79.3285 8.42171 79.4162 8.48017Z" fill="black"/>
<path d="M94.5878 2.80943L98.8118 5.65952L98.9872 5.52798L94.6755 0.558594H94.5001L90.1885 5.52798L90.3639 5.65952L94.5878 2.80943Z" fill="black"/>
</svg>
